<svg width="36" height="36" viewBox="0 0 36 36" fill="none" xmlns="http://www.w3.org/2000/svg">
<rect x="36" y="36" width="36" height="36" rx="18" transform="rotate(180 36 36)" fill="#121212"/>
<path d="M21.5513 9.33145C21.7413 9.33145 21.9313 9.40145 22.0813 9.55145C22.3713 9.84145 22.3713 10.3214 22.0813 10.6114L15.5613 17.1314C15.0813 17.6114 15.0813 18.3914 15.5613 18.8714L22.0813 25.3914C22.3713 25.6814 22.3713 26.1614 22.0813 26.4514C21.7913 26.7414 21.3113 26.7414 21.0213 26.4514L14.5013 19.9314C13.9913 19.4214 13.7013 18.7314 13.7013 18.0014C13.7013 17.2714 13.9813 16.5814 14.5013 16.0714L21.0213 9.55145C21.1713 9.41145 21.3613 9.33145 21.5513 9.33145Z" fill="#F5FAFC"/>
</svg>
