<svg width="50" height="48" viewBox="0 0 50 48" fill="none" xmlns="http://www.w3.org/2000/svg">
<path d="M44 9.69937V33.4794C44 35.4194 42.42 37.1994 40.48 37.4394L39.86 37.5194C36.58 37.9594 31.96 39.3194 28.24 40.8794C26.94 41.4194 25.5 40.4394 25.5 39.0194V11.1994C25.5 10.4594 25.92 9.77938 26.58 9.41937C30.24 7.43937 35.78 5.67937 39.54 5.35938H39.66C42.06 5.35937 44 7.29937 44 9.69937Z" fill="#292D32"/>
<path d="M21.4205 9.41937C17.7605 7.43937 12.2205 5.67937 8.46047 5.35938H8.32047C5.92047 5.35938 3.98047 7.29937 3.98047 9.69937V33.4794C3.98047 35.4194 5.56047 37.1994 7.50047 37.4394L8.12047 37.5194C11.4005 37.9594 16.0205 39.3194 19.7405 40.8794C21.0405 41.4194 22.4805 40.4394 22.4805 39.0194V11.1994C22.4805 10.4394 22.0805 9.77938 21.4205 9.41937ZM10.0005 15.4794H14.5005C15.3205 15.4794 16.0005 16.1594 16.0005 16.9794C16.0005 17.8194 15.3205 18.4794 14.5005 18.4794H10.0005C9.18047 18.4794 8.50047 17.8194 8.50047 16.9794C8.50047 16.1594 9.18047 15.4794 10.0005 15.4794ZM16.0005 24.4794H10.0005C9.18047 24.4794 8.50047 23.8194 8.50047 22.9794C8.50047 22.1594 9.18047 21.4794 10.0005 21.4794H16.0005C16.8205 21.4794 17.5005 22.1594 17.5005 22.9794C17.5005 23.8194 16.8205 24.4794 16.0005 24.4794Z" fill="#292D32"/>
<circle cx="41" cy="35" r="8" fill="#292D32" stroke="white" stroke-width="2"/>
<path d="M37.8358 39.0028C37.6233 39.0028 37.4109 38.9245 37.2432 38.7568C36.9189 38.4326 36.9189 37.8959 37.2432 37.5716L43.5716 31.2432C43.8959 30.9189 44.4326 30.9189 44.7568 31.2432C45.0811 31.5674 45.0811 32.1041 44.7568 32.4284L38.4284 38.7568C38.2718 38.9245 38.0482 39.0028 37.8358 39.0028Z" fill="white"/>
<path d="M44.1642 39.0028C43.9518 39.0028 43.7393 38.9245 43.5716 38.7568L37.2432 32.4284C36.9189 32.1041 36.9189 31.5674 37.2432 31.2432C37.5674 30.9189 38.1041 30.9189 38.4284 31.2432L44.7568 37.5716C45.0811 37.8959 45.0811 38.4326 44.7568 38.7568C44.5891 38.9245 44.3767 39.0028 44.1642 39.0028Z" fill="white"/>
</svg>
