<svg width="42" height="40" viewBox="0 0 42 40" fill="none" xmlns="http://www.w3.org/2000/svg">
<path d="M36.6673 18.3163V7.783C36.6673 5.783 35.034 4.29966 33.0506 4.46633H32.9506C29.4506 4.76633 24.134 6.54966 21.1673 8.41633L20.884 8.59966C20.4006 8.89966 19.6006 8.89966 19.1173 8.59966L18.7006 8.34966C15.734 6.49966 10.434 4.733 6.93398 4.44966C4.95065 4.283 3.33398 5.783 3.33398 7.76633V27.8997C3.33398 29.4997 4.63398 30.9997 6.23398 31.1997L6.71732 31.2663C10.334 31.7497 15.9173 33.583 19.1173 35.333L19.184 35.3663C19.634 35.6163 20.3506 35.6163 20.784 35.3663C23.984 33.5997 29.584 31.7497 33.2173 31.2663L33.7673 31.1997C35.3673 30.9997 36.6673 29.4997 36.6673 27.8997V25.033" stroke="#158885" stroke-width="2.5" stroke-linecap="round" stroke-linejoin="round"/>
<path d="M20 9.1499V34.1499" stroke="#158885" stroke-width="2.5" stroke-linecap="round" stroke-linejoin="round"/>
<path d="M12.916 14.1499H9.16602" stroke="#158885" stroke-width="2.5" stroke-linecap="round" stroke-linejoin="round"/>
<path d="M14.166 19.1499H9.16602" stroke="#158885" stroke-width="2.5" stroke-linecap="round" stroke-linejoin="round"/>
<circle cx="34.1654" cy="29.1663" r="6.66667" fill="#F7F9FC" stroke="#158885" stroke-width="1.66667"/>
<path d="M31.5266 32.502C31.3495 32.502 31.1725 32.4368 31.0327 32.297C30.7625 32.0268 30.7625 31.5796 31.0327 31.3094L36.3064 26.0357C36.5766 25.7655 37.0239 25.7655 37.2941 26.0357C37.5643 26.3059 37.5643 26.7531 37.2941 27.0233L32.0204 32.297C31.8899 32.4368 31.7036 32.502 31.5266 32.502Z" fill="#158885"/>
<path d="M36.8003 32.502C36.6232 32.502 36.4462 32.4368 36.3064 32.297L31.0327 27.0233C30.7625 26.7531 30.7625 26.3059 31.0327 26.0357C31.3029 25.7655 31.7502 25.7655 32.0204 26.0357L37.2941 31.3094C37.5643 31.5796 37.5643 32.0268 37.2941 32.297C37.1543 32.4368 36.9773 32.502 36.8003 32.502Z" fill="#158885"/>
</svg>
