<svg xmlns="http://www.w3.org/2000/svg" width="50" height="50" viewBox="0 0 50 50" fill="none">
  <path d="M41.6667 14.5833H33.3333V10.4167C33.3333 8.75 31.9167 7.29167 30.2083 7.29167H19.7917C18.0833 7.29167 16.6667 8.75 16.6667 10.4167V14.5833H8.33333C5.625 14.5833 3.58333 16.875 3.58333 19.5833V37.5C3.58333 40.2083 5.625 42.5 8.33333 42.5H41.6667C44.375 42.5 46.4167 40.2083 46.4167 37.5V19.5833C46.4167 16.875 44.375 14.5833 41.6667 14.5833ZM20.8333 10.4167H29.1667V14.5833H20.8333V10.4167ZM42.25 37.5C42.25 37.9167 41.875 38.3333 41.6667 38.3333H8.33333C8.125 38.3333 7.75 37.9167 7.75 37.5V28.9583L15.8333 24.7917V28.75C15.8333 29.5833 16.4583 30.2083 17.2917 30.2083C18.125 30.2083 18.75 29.5833 18.75 28.75V23.5417L24.5833 20.625C24.7917 20.5 25.2083 20.5 25.4167 20.625L42.25 29.375V37.5ZM42.25 24.7917L25 15.8333L7.75 24.7917V19.5833C7.75 19.1667 8.125 18.75 8.33333 18.75H41.6667C41.875 18.75 42.25 19.1667 42.25 19.5833V24.7917Z" fill="#00937B"/>
</svg>
