<svg width="13" height="13" viewBox="0 0 13 13" fill="none" xmlns="http://www.w3.org/2000/svg">
<g clip-path="url(#clip0_662_2501)">
<path d="M9.88374 5.85513C10.1572 5.85513 10.3788 5.63348 10.3788 5.36006C10.3788 5.08664 10.1572 4.86499 9.88374 4.86499C9.61032 4.86499 9.38867 5.08664 9.38867 5.36006C9.38867 5.63348 9.61032 5.85513 9.88374 5.85513Z" fill="white"/>
<path d="M11.0236 1.15299H10.38V0.657914C10.38 0.384486 10.1584 0.162842 9.88497 0.162842C9.61155 0.162842 9.3899 0.384486 9.3899 0.657914V1.15299H7.13732V0.657914C7.13732 0.384486 6.91568 0.162842 6.64225 0.162842C6.36882 0.162842 6.14718 0.384486 6.14718 0.657914V1.15299H3.91935V0.657914C3.91935 0.384486 3.69771 0.162842 3.42428 0.162842C3.15085 0.162842 2.92921 0.384486 2.92921 0.657914V1.15299H2.31037C1.21844 1.15299 0.330078 2.04134 0.330078 3.13328V10.8564C0.330078 11.9483 1.21844 12.8367 2.31037 12.8367H6.09767C6.3711 12.8367 6.59274 12.615 6.59274 12.3416C6.59274 12.0682 6.3711 11.8465 6.09767 11.8465H2.31037C1.7644 11.8465 1.32022 11.4024 1.32022 10.8564V3.13328C1.32022 2.58731 1.7644 2.14313 2.31037 2.14313H2.92921V2.6382C2.92921 2.91163 3.15085 3.13328 3.42428 3.13328C3.69771 3.13328 3.91935 2.91163 3.91935 2.6382V2.14313H6.14718V2.6382C6.14718 2.91163 6.36882 3.13328 6.64225 3.13328C6.91568 3.13328 7.13732 2.91163 7.13732 2.6382V2.14313H9.3899V2.6382C9.3899 2.91163 9.61155 3.13328 9.88497 3.13328C10.1584 3.13328 10.38 2.91163 10.38 2.6382V2.14313H11.0236C11.5696 2.14313 12.0138 2.58731 12.0138 3.13328V5.95519C12.0138 6.22862 12.2354 6.45026 12.5089 6.45026C12.7823 6.45026 13.0039 6.22862 13.0039 5.95519V3.13328C13.0039 2.04134 12.1156 1.15299 11.0236 1.15299Z" fill="white"/>
<path d="M10.0074 6.84595C8.35583 6.84595 7.01221 8.18957 7.01221 9.84114C7.01221 11.4927 8.35583 12.8363 10.0074 12.8363C11.659 12.8363 13.0026 11.4927 13.0026 9.84114C13.0026 8.18957 11.659 6.84595 10.0074 6.84595ZM10.0074 11.8462C8.90182 11.8462 8.00235 10.9467 8.00235 9.84114C8.00235 8.73554 8.90182 7.83609 10.0074 7.83609C11.113 7.83609 12.0124 8.73554 12.0124 9.84114C12.0124 10.9467 11.113 11.8462 10.0074 11.8462Z" fill="white"/>
<path d="M10.7271 9.34644H10.5043V8.82662C10.5043 8.55319 10.2827 8.33154 10.0092 8.33154C9.7358 8.33154 9.51416 8.55319 9.51416 8.82662V9.84151C9.51416 10.1149 9.7358 10.3366 10.0092 10.3366H10.7271C11.0005 10.3366 11.2222 10.1149 11.2222 9.84151C11.2222 9.56809 11.0005 9.34644 10.7271 9.34644Z" fill="white"/>
<path d="M7.7314 5.85513C8.00482 5.85513 8.22647 5.63348 8.22647 5.36006C8.22647 5.08664 8.00482 4.86499 7.7314 4.86499C7.45798 4.86499 7.23633 5.08664 7.23633 5.36006C7.23633 5.63348 7.45798 5.85513 7.7314 5.85513Z" fill="white"/>
<path d="M5.57759 8.01016C5.85101 8.01016 6.07266 7.78851 6.07266 7.51509C6.07266 7.24167 5.85101 7.02002 5.57759 7.02002C5.30417 7.02002 5.08252 7.24167 5.08252 7.51509C5.08252 7.78851 5.30417 8.01016 5.57759 8.01016Z" fill="white"/>
<path d="M3.42574 5.85513C3.69916 5.85513 3.92081 5.63348 3.92081 5.36006C3.92081 5.08664 3.69916 4.86499 3.42574 4.86499C3.15232 4.86499 2.93066 5.08664 2.93066 5.36006C2.93066 5.63348 3.15232 5.85513 3.42574 5.85513Z" fill="white"/>
<path d="M3.42574 8.01016C3.69916 8.01016 3.92081 7.78851 3.92081 7.51509C3.92081 7.24167 3.69916 7.02002 3.42574 7.02002C3.15232 7.02002 2.93066 7.24167 2.93066 7.51509C2.93066 7.78851 3.15232 8.01016 3.42574 8.01016Z" fill="white"/>
<path d="M3.42574 10.163C3.69916 10.163 3.92081 9.94134 3.92081 9.66792C3.92081 9.3945 3.69916 9.17285 3.42574 9.17285C3.15232 9.17285 2.93066 9.3945 2.93066 9.66792C2.93066 9.94134 3.15232 10.163 3.42574 10.163Z" fill="white"/>
<path d="M5.57759 10.163C5.85101 10.163 6.07266 9.94134 6.07266 9.66792C6.07266 9.3945 5.85101 9.17285 5.57759 9.17285C5.30417 9.17285 5.08252 9.3945 5.08252 9.66792C5.08252 9.94134 5.30417 10.163 5.57759 10.163Z" fill="white"/>
<path d="M5.57759 5.85513C5.85101 5.85513 6.07266 5.63348 6.07266 5.36006C6.07266 5.08664 5.85101 4.86499 5.57759 4.86499C5.30417 4.86499 5.08252 5.08664 5.08252 5.36006C5.08252 5.63348 5.30417 5.85513 5.57759 5.85513Z" fill="white"/>
</g>
<defs>
<clipPath id="clip0_662_2501">
<rect width="12.6739" height="12.6739" fill="white" transform="translate(0.326172 0.163086)"/>
</clipPath>
</defs>
</svg>
