<svg width="81" height="80" viewBox="0 0 81 80" fill="none" xmlns="http://www.w3.org/2000/svg">
<path d="M7.16602 43.167V50.0003C7.16602 66.667 13.8327 73.3337 30.4993 73.3337H50.4993C67.166 73.3337 73.8327 66.667 73.8327 50.0003V30.0003C73.8327 13.3337 67.166 6.66699 50.4993 6.66699H30.4993C13.8327 6.66699 7.16602 13.3337 7.16602 30.0003" stroke="#158885" stroke-width="5" stroke-linecap="round" stroke-linejoin="round"/>
<path d="M28.7173 28.2163L52.284 51.783M57.1673 39.9997C57.1673 49.2044 49.7054 56.6663 40.5007 56.6663C31.2959 56.6663 23.834 49.2044 23.834 39.9997C23.834 30.7949 31.2959 23.333 40.5007 23.333C49.7054 23.333 57.1673 30.7949 57.1673 39.9997Z" stroke="#158885" stroke-width="3.33333" stroke-linecap="round" stroke-linejoin="round"/>
</svg>
