<svg width="28" height="28" viewBox="0 0 28 28" fill="none" xmlns="http://www.w3.org/2000/svg">
<path opacity="0.4" d="M14.0007 25.6663C20.444 25.6663 25.6673 20.443 25.6673 13.9997C25.6673 7.55635 20.444 2.33301 14.0007 2.33301C7.55733 2.33301 2.33398 7.55635 2.33398 13.9997C2.33398 20.443 7.55733 25.6663 14.0007 25.6663Z" fill="#158885"/>
<path d="M18.3284 18.5851C18.1767 18.5851 18.0251 18.5501 17.8851 18.4567L14.2684 16.2984C13.3701 15.7617 12.7051 14.5834 12.7051 13.5451V8.76172C12.7051 8.28339 13.1017 7.88672 13.5801 7.88672C14.0584 7.88672 14.4551 8.28339 14.4551 8.76172V13.5451C14.4551 13.9651 14.8051 14.5834 15.1667 14.7934L18.7834 16.9517C19.2034 17.1967 19.3317 17.7334 19.0867 18.1534C18.9117 18.4334 18.6201 18.5851 18.3284 18.5851Z" fill="#158885"/>
</svg>
