<svg width="14" height="13" viewBox="0 0 14 13" fill="none" xmlns="http://www.w3.org/2000/svg">
<g clip-path="url(#clip0_662_2492)">
<path d="M9.4954 7.62034L7.72831 6.29504V3.59536C7.72831 3.32391 7.5089 3.10449 7.23745 3.10449C6.966 3.10449 6.74658 3.32391 6.74658 3.59536V6.54049C6.74658 6.6951 6.81923 6.8409 6.94293 6.93318L8.90634 8.40575C8.99468 8.47202 9.09778 8.50393 9.20036 8.50393C9.35007 8.50393 9.49733 8.43667 9.59355 8.30708C9.75655 8.09059 9.71237 7.78283 9.4954 7.62034Z" fill="white"/>
<path d="M7.23634 0.16333C3.74195 0.16333 0.899414 3.00586 0.899414 6.50026C0.899414 9.99465 3.74195 12.8372 7.23634 12.8372C10.7307 12.8372 13.5733 9.99465 13.5733 6.50026C13.5733 3.00586 10.7307 0.16333 7.23634 0.16333ZM7.23634 11.8555C4.28385 11.8555 1.88112 9.45274 1.88112 6.50026C1.88112 3.54777 4.28385 1.14503 7.23634 1.14503C10.1893 1.14503 12.5916 3.54777 12.5916 6.50026C12.5916 9.45274 10.1888 11.8555 7.23634 11.8555Z" fill="white"/>
</g>
<defs>
<clipPath id="clip0_662_2492">
<rect width="12.6739" height="12.6739" fill="white" transform="translate(0.899902 0.163086)"/>
</clipPath>
</defs>
</svg>
