<svg width="48" height="48" viewBox="0 0 48 48" fill="none" xmlns="http://www.w3.org/2000/svg">
<path d="M32.38 4H15.62C8.34 4 4 8.34 4 15.62V32.36C4 39.66 8.34 44 15.62 44H32.36C39.64 44 43.98 39.66 43.98 32.38V15.62C44 8.34 39.66 4 32.38 4ZM30.72 28.6C31.3 29.18 31.3 30.14 30.72 30.72C30.42 31.02 30.04 31.16 29.66 31.16C29.28 31.16 28.9 31.02 28.6 30.72L24 26.12L19.4 30.72C19.1 31.02 18.72 31.16 18.34 31.16C17.96 31.16 17.58 31.02 17.28 30.72C16.7 30.14 16.7 29.18 17.28 28.6L21.88 24L17.28 19.4C16.7 18.82 16.7 17.86 17.28 17.28C17.86 16.7 18.82 16.7 19.4 17.28L24 21.88L28.6 17.28C29.18 16.7 30.14 16.7 30.72 17.28C31.3 17.86 31.3 18.82 30.72 19.4L26.12 24L30.72 28.6Z" fill="#292D32"/>
</svg>
