<svg width="421" height="94" viewBox="0 0 421 94" fill="none" xmlns="http://www.w3.org/2000/svg">
<g opacity="0.5">
<path d="M47.6821 10.8252H384.174C404.153 10.8252 420.349 27.0211 420.349 46.9998C420.349 66.9785 404.153 83.1744 384.174 83.1744H47.6821V10.8252Z" fill="#3BA38C"/>
<path d="M146.331 74.4779C143.672 74.4779 141.355 73.918 139.379 72.7982C137.42 71.6784 135.919 70.0998 134.877 68.0624C133.85 66.0405 133.337 63.7154 133.337 61.087C133.337 59.2829 133.555 57.4477 133.99 55.5814C134.426 53.6995 135.025 52.012 135.787 50.519H142.086C141.588 52.2298 141.191 54.0261 140.896 55.908C140.6 57.7743 140.452 59.5162 140.452 61.1337C140.452 63.451 141.036 65.294 142.202 66.6627C143.369 68.0468 144.908 68.7389 146.821 68.7389H148.244C150.702 68.7389 152.506 68.0702 153.657 66.7326C154.823 65.4107 155.406 63.5443 155.406 61.1337V26.7001H162.522V57.2611H168.751C168.906 57.2611 168.984 57.3233 168.984 57.4477V62.7667C168.984 62.9222 168.906 63 168.751 63H162.475C161.9 70.6519 157.218 74.4779 148.431 74.4779H146.331ZM168.261 63C168.105 63 168.027 62.9222 168.027 62.7667V57.4477C168.027 57.3233 168.105 57.2611 168.261 57.2611H175.656V39.3444H182.771V57.2611H189.957C190.112 57.2611 190.19 57.3233 190.19 57.4477V62.7667C190.19 62.9222 190.112 63 189.957 63H168.261ZM174.653 74.9444C173.673 74.9444 172.895 74.6334 172.32 74.0113C171.744 73.4047 171.457 72.5727 171.457 71.5151C171.457 70.4419 171.737 69.5943 172.297 68.9722C172.872 68.3657 173.657 68.0624 174.653 68.0624C175.633 68.0624 176.402 68.3657 176.962 68.9722C177.522 69.5788 177.802 70.4264 177.802 71.5151C177.802 72.6038 177.514 73.4436 176.939 74.0346C176.364 74.6412 175.601 74.9444 174.653 74.9444ZM182.771 74.9444C181.791 74.9444 181.014 74.6334 180.438 74.0113C179.863 73.4047 179.575 72.5727 179.575 71.5151C179.575 70.4419 179.855 69.5943 180.415 68.9722C180.99 68.3657 181.776 68.0624 182.771 68.0624C183.767 68.0624 184.544 68.3657 185.104 68.9722C185.664 69.5943 185.944 70.4419 185.944 71.5151C185.944 72.5727 185.649 73.4047 185.058 74.0113C184.482 74.6334 183.72 74.9444 182.771 74.9444ZM219.911 57.2611V51.3822C219.911 49.0648 219.374 47.3618 218.301 46.2731C217.244 45.1689 215.603 44.6168 213.379 44.6168C209.086 44.6168 205.377 47.5873 202.251 53.5284V57.2611H219.911ZM189.49 63C189.334 63 189.257 62.9222 189.257 62.7667V57.4477C189.257 57.3233 189.334 57.2611 189.49 57.2611H195.112V39.3444H202.251V47.7195C205.159 41.8251 209.475 38.8778 215.199 38.8778C219.102 38.8778 222.05 39.9121 224.04 41.9806C226.031 44.0335 227.026 47.214 227.026 51.5221V63H189.49ZM248.512 57.2611C248.668 57.2611 248.746 57.3233 248.746 57.4477V62.7667C248.746 62.9222 248.668 63 248.512 63H235.425V26.7001H242.54V57.2611H248.512ZM281.01 57.2611C281.165 57.2611 281.243 57.3233 281.243 57.4477V62.7667C281.243 62.9222 281.165 63 281.01 63H248.046C247.89 63 247.813 62.9222 247.813 62.7667V57.4477C247.813 57.3233 247.89 57.2611 248.046 57.2611H254.881C253.341 55.4414 252.572 53.3418 252.572 50.9622C252.572 47.4007 253.8 44.5779 256.258 42.4938C258.715 40.3942 262.137 39.3444 266.522 39.3444H275.037V57.2611H281.01ZM267.922 57.2611V45.0833H266.662C264.516 45.0833 262.852 45.6199 261.67 46.693C260.488 47.7506 259.897 49.2981 259.897 51.3355C259.897 53.2329 260.465 54.6949 261.6 55.7214C262.751 56.7478 264.407 57.2611 266.569 57.2611H267.922ZM266.009 35.2385C265.014 35.2385 264.228 34.9352 263.653 34.3287C263.077 33.7066 262.79 32.8667 262.79 31.8091C262.79 30.736 263.07 29.8962 263.63 29.2896C264.205 28.6675 264.998 28.3564 266.009 28.3564C266.973 28.3564 267.735 28.6597 268.295 29.2663C268.871 29.8728 269.159 30.7204 269.159 31.8091C269.159 32.8667 268.863 33.7066 268.272 34.3287C267.697 34.9352 266.942 35.2385 266.009 35.2385ZM280.566 63C280.411 63 280.333 62.9222 280.333 62.7667V57.4477C280.333 57.3233 280.411 57.2611 280.566 57.2611H287.962V39.3444H295.077V57.2611H302.262C302.418 57.2611 302.496 57.3233 302.496 57.4477V62.7667C302.496 62.9222 302.418 63 302.262 63H280.566ZM287.052 35.2385C286.072 35.2385 285.294 34.9352 284.719 34.3287C284.144 33.7066 283.856 32.8667 283.856 31.8091C283.856 30.736 284.136 29.8962 284.696 29.2896C285.271 28.6675 286.056 28.3564 287.052 28.3564C288.032 28.3564 288.802 28.6597 289.361 29.2663C289.921 29.8728 290.201 30.7204 290.201 31.8091C290.201 32.8978 289.914 33.7454 289.338 34.352C288.763 34.943 288.001 35.2385 287.052 35.2385ZM295.17 35.2385C294.191 35.2385 293.413 34.9352 292.837 34.3287C292.262 33.7066 291.974 32.8667 291.974 31.8091C291.974 30.736 292.254 29.8962 292.814 29.2896C293.39 28.6675 294.175 28.3564 295.17 28.3564C296.166 28.3564 296.943 28.6675 297.503 29.2896C298.063 29.8962 298.343 30.736 298.343 31.8091C298.343 32.8667 298.048 33.7066 297.457 34.3287C296.881 34.9352 296.119 35.2385 295.17 35.2385ZM301.796 63C301.64 63 301.563 62.9222 301.563 62.7667V57.4477C301.563 57.3233 301.64 57.2611 301.796 57.2611H307.768V26.7001H314.883V57.2611H321.089C321.244 57.2611 321.322 57.3233 321.322 57.4477V62.7667C321.322 62.9222 321.244 63 321.089 63H301.796ZM320.646 63C320.49 63 320.412 62.9222 320.412 62.7667V57.4477C320.412 57.3233 320.49 57.2611 320.646 57.2611H326.618V26.7001H333.733V63H320.646Z" fill="white"/>
<circle cx="47" cy="47" r="44.9545" fill="#0D6C64" stroke="#3BA38C" stroke-width="3.90909"/>
<g clip-path="url(#clip0_60_1010)">
<path d="M41.595 23.6439C38.4341 24.1753 35.8962 27.0338 35.7863 30.213C35.768 30.8543 35.7771 30.9001 36.0245 31.1108C36.3452 31.3857 36.7391 31.3949 37.0506 31.12C37.2705 30.9368 37.3072 30.8085 37.3805 30.1397C37.5362 28.5455 38.2234 27.2537 39.4053 26.3283C41.2376 24.8899 43.6839 24.7341 45.6812 25.9435C46.405 26.3833 47.2754 27.3361 47.6693 28.1424C47.9992 28.8112 48.2648 29.819 48.274 30.3962C48.274 30.7535 48.4847 31.1933 48.6863 31.2758C49.007 31.3949 49.3826 31.3307 49.6025 31.1017C49.8865 30.8268 49.9048 30.2221 49.6849 29.1502C48.9245 25.4671 45.3422 23.0209 41.595 23.6439Z" fill="white"/>
<path d="M42.0072 27.1167C40.5505 27.4923 39.3686 28.83 39.1212 30.415C39.0571 30.7906 39.0204 34.263 39.0204 39.9892L39.0113 48.9679L38.5898 48.464C38.3516 48.1891 37.8843 47.6852 37.5545 47.3554C36.0245 45.8254 33.734 45.468 31.7367 46.4484C31.1503 46.7416 29.7027 47.896 29.5195 48.2258C29.4554 48.3266 29.4096 48.4915 29.4004 48.5831C29.4004 48.7114 36.4459 62.3901 38.1225 65.5052C39.2403 67.5758 41.0177 69.17 43.0242 69.9029C44.4901 70.4252 44.8291 70.4526 50.7569 70.4526C54.0826 70.4526 56.4098 70.416 56.8404 70.3519C58.7002 70.0953 60.3769 69.2524 61.7512 67.8873C63.4461 66.2015 64.3898 64.1034 64.5822 61.6114C64.628 60.97 64.6372 57.2411 64.6005 52.7243L64.5364 44.9367L64.2432 44.3228C63.5286 42.8019 62.1451 41.9682 60.5418 42.0781C59.7905 42.1239 58.9568 42.4354 58.5628 42.8019L58.3613 42.9852L58.123 42.5087C57.0694 40.429 54.4766 39.7693 52.6625 41.1345L52.1861 41.4918L51.9387 41.107C51.1875 39.9526 49.9506 39.3296 48.558 39.412C47.9075 39.4487 47.6326 39.5403 46.6981 40.0167C46.6523 40.035 46.6248 37.9095 46.6248 35.2983C46.6248 30.131 46.6065 29.9569 46.1026 29.0224C45.7453 28.3627 44.8291 27.5473 44.1786 27.2999C43.5739 27.0709 42.5386 26.9884 42.0072 27.1167ZM43.7663 28.8483C44.1877 29.059 44.6367 29.5538 44.8657 30.0302C45.0123 30.3417 45.0215 31.0655 45.0673 39.696L45.1131 49.032L45.333 49.2061C45.7636 49.5543 46.4599 49.3252 46.579 48.803C46.6065 48.693 46.634 47.2363 46.6431 45.578C46.6706 42.6553 46.6798 42.5454 46.8722 42.1789C47.7609 40.5114 50.0514 40.5939 50.8301 42.3255C51.0042 42.7103 51.0225 42.921 51.0225 45.4222C51.0225 48.3999 51.0592 48.6198 51.5631 48.8213C51.7922 48.9221 51.9021 48.9221 52.1311 48.8213C52.6259 48.6198 52.6717 48.3632 52.6717 45.9261C52.6717 43.8281 52.6809 43.7273 52.8916 43.2783C53.4047 42.1881 54.5865 41.6933 55.6035 42.1514C56.1441 42.3896 56.3914 42.637 56.6846 43.1959C56.932 43.6448 56.932 43.6815 56.9778 45.972C57.0236 48.2808 57.0236 48.2991 57.2435 48.4732C57.5458 48.7205 58.0314 48.7022 58.3063 48.4182C58.5262 48.2075 58.5353 48.1525 58.5353 46.9706C58.5353 45.3489 58.6636 44.9183 59.3049 44.2862C59.6806 43.9197 59.8913 43.7914 60.2669 43.6998C61.4488 43.4158 62.5849 44.1029 62.9331 45.3031C63.0064 45.5688 63.0247 47.9601 63.0064 54.007C62.9697 62.0878 62.9605 62.3627 62.7865 62.9857C62.3375 64.5249 61.7512 65.5602 60.7434 66.6321C59.6348 67.8048 58.1047 68.5928 56.5014 68.8035C55.9975 68.8768 53.9452 68.8951 50.2896 68.8768C44.939 68.8401 44.8291 68.8401 44.1511 68.6294C42.7035 68.1896 41.3292 67.2734 40.4222 66.1374C39.845 65.4136 39.6892 65.1112 34.9892 56.0776L31.2053 48.7938L31.6084 48.4365C31.8283 48.235 32.2772 47.9418 32.6071 47.786C33.1385 47.5295 33.2942 47.502 34.0272 47.502C34.9067 47.5112 35.3831 47.6577 36.1161 48.1617C36.3085 48.2991 37.1056 49.1878 37.8935 50.1406C38.6723 51.0843 39.4144 51.9089 39.5243 51.9639C39.79 52.083 40.1565 52.0005 40.3947 51.7623C40.5779 51.5791 40.5779 51.4141 40.5779 41.3818C40.5779 35.2067 40.6146 30.983 40.6696 30.644C40.9261 29.0499 42.447 28.1703 43.7663 28.8483Z" fill="white"/>
</g>
</g>
<defs>
<clipPath id="clip0_60_1010">
<rect width="46.9091" height="46.9091" fill="white" transform="translate(23.5459 23.5449)"/>
</clipPath>
</defs>
</svg>
