<svg width="41" height="41" viewBox="0 0 41 41" fill="none" xmlns="http://www.w3.org/2000/svg">
<path d="M18.793 3.41699H15.3763C6.83464 3.41699 3.41797 6.83366 3.41797 15.3753V25.6253C3.41797 34.167 6.83464 37.5837 15.3763 37.5837H25.6263C34.168 37.5837 37.5846 34.167 37.5846 25.6253V22.2087" stroke="white" stroke-width="2.5625" stroke-linecap="round" stroke-linejoin="round"/>
<path d="M27.4027 5.15996L13.941 18.6216C13.4285 19.1341 12.916 20.142 12.8135 20.8766L12.0789 26.0187C11.8056 27.8808 13.121 29.1791 14.9831 28.9229L20.1252 28.1883C20.8427 28.0858 21.8506 27.5733 22.3802 27.0608L35.8418 13.5991C38.1652 11.2758 39.2585 8.57663 35.8418 5.15996C32.4252 1.7433 29.726 2.83663 27.4027 5.15996Z" stroke="white" stroke-width="2.5625" stroke-miterlimit="10" stroke-linecap="round" stroke-linejoin="round"/>
<path d="M25.4727 7.08984C26.6172 11.1728 29.8118 14.3673 33.9118 15.529" stroke="white" stroke-width="2.5625" stroke-miterlimit="10" stroke-linecap="round" stroke-linejoin="round"/>
</svg>
