<svg width="16" height="17" viewBox="0 0 16 17" fill="none" xmlns="http://www.w3.org/2000/svg">
<g clip-path="url(#clip0_60_5164)">
<path d="M19.3056 14.4722C19.3056 15.1225 19.0473 15.7461 18.5875 16.2059C18.1277 16.6657 17.5041 16.924 16.8539 16.924H-0.308491C-0.958739 16.924 -1.58235 16.6657 -2.04215 16.2059C-2.50194 15.7461 -2.76025 15.1225 -2.76025 14.4722V3.43931C-2.76025 2.78906 -2.50194 2.16545 -2.04215 1.70565C-1.58235 1.24586 -0.958739 0.987549 -0.308491 0.987549H16.8539C17.5041 0.987549 18.1277 1.24586 18.5875 1.70565C19.0473 2.16545 19.3056 2.78906 19.3056 3.43931V14.4722Z" fill="#141414"/>
<path d="M-2.76025 5.89136H19.3056V12.0208H-2.76025V5.89136Z" fill="#F4F4F4"/>
<path d="M16.8539 0.987549H-0.308491C-0.958739 0.987549 -1.58235 1.24586 -2.04215 1.70565C-2.50194 2.16545 -2.76025 2.78906 -2.76025 3.43931L-2.76025 5.89108H19.3056V3.43931C19.3056 2.78906 19.0473 2.16545 18.5875 1.70565C18.1277 1.24586 17.5041 0.987549 16.8539 0.987549Z" fill="#E10115"/>
<path d="M6.6582 10.8702C6.6582 10.8702 6.66597 10.9915 6.77175 11.0522C6.77175 11.0522 6.74167 11.1434 6.85522 11.1963C6.96877 11.2492 7.37833 11.3326 8.09119 11.3326C8.80404 11.3326 9.20584 11.2569 9.31211 11.2036C9.41838 11.1507 9.42566 11.0293 9.42566 11.0293C9.42566 11.0293 9.53921 10.9687 9.53193 10.893C9.52417 10.8173 9.37277 10.7338 9.37277 10.7338C9.37277 10.7338 9.33492 10.6353 9.22864 10.5975C9.12237 10.5596 8.78123 10.7644 8.12904 10.7338C7.47684 10.7037 7.10562 10.6047 6.9843 10.6125C6.86298 10.6203 6.81009 10.7416 6.81009 10.7416C6.81009 10.7416 6.67325 10.8022 6.6582 10.8702Z" fill="#FFCD43"/>
<path d="M6.74199 10.8629C6.73568 10.908 6.83322 11.007 6.83322 11.007C6.83322 11.007 6.83322 11.1206 6.93173 11.1512C7.03024 11.1817 7.43204 11.2574 8.08423 11.2497C8.73643 11.2419 9.19888 11.204 9.25178 11.1584C9.30467 11.1128 9.35028 11.0143 9.35028 11.0143C9.35028 11.0143 9.45656 10.9386 9.44879 10.8779C9.44103 10.8173 9.28963 10.7794 9.28963 10.7794C9.28963 10.7794 9.24692 10.6882 9.19646 10.6504C9.14599 10.6125 8.81989 10.8018 8.12208 10.8018C7.43932 10.8018 7.04528 10.6348 6.97735 10.6426C6.90892 10.6504 6.86379 10.779 6.86379 10.779C6.86379 10.779 6.74976 10.81 6.74199 10.8629Z" fill="#EEEEEE"/>
<path d="M9.62224 7.92118C9.62224 7.92118 9.60719 7.565 9.2811 7.61012C8.955 7.65574 8.93219 7.81491 8.58329 7.85276L8.51147 7.85955C8.45326 7.70178 8.42114 7.53559 8.41636 7.36749C8.41636 7.1399 8.48478 7.0414 8.24943 6.92784C8.01456 6.81429 7.96894 6.92008 7.96894 6.92008C7.96894 6.92008 7.78697 6.82885 7.7035 6.89727C7.62004 6.96569 7.66565 7.1399 7.7035 7.08701C7.74135 7.03412 7.89324 7.18552 7.89324 7.18552C7.94468 7.43737 7.79862 7.71009 7.69865 7.86198C7.6642 7.85858 7.63654 7.85712 7.59772 7.85276C7.24881 7.81491 7.226 7.65574 6.89991 7.61012C6.57381 7.56451 6.55877 7.92118 6.55877 7.92118L6.42969 10.6736L6.69513 10.4688L6.69658 10.4363L7.24881 9.9457L7.34101 9.8535L7.11245 10.5217C7.11245 10.5217 6.76355 10.4989 6.86206 10.7794C6.86206 10.7794 6.91495 10.6202 7.00618 10.6503C7.09741 10.6804 7.36236 10.7488 7.36236 10.7488L7.45359 10.8929L7.56715 10.7867L7.92333 10.7716C7.92333 10.7716 8.03688 10.8017 8.0296 10.9007C8.05047 10.8581 8.05677 10.8099 8.04756 10.7634L8.1548 10.7561C8.14328 10.8049 8.14912 10.8562 8.1713 10.9012C8.16353 10.8027 8.27757 10.7721 8.27757 10.7721L8.63375 10.7871L8.74779 10.8934L8.83902 10.7493C8.83902 10.7493 9.10397 10.6809 9.19472 10.6508C9.28546 10.6207 9.33884 10.7799 9.33884 10.7799C9.43735 10.4994 9.08845 10.5222 9.08845 10.5222L8.87056 9.88504L8.93171 9.94618L9.48394 10.4368L9.48539 10.4693L9.75083 10.6741L9.62224 7.92118ZM8.11452 9.58951C7.56763 9.25177 7.5225 8.39916 7.5225 8.39916C7.5225 8.39916 7.86073 8.38169 8.10627 8.20942C8.32755 8.40596 8.70509 8.38363 8.70509 8.38363C8.70509 8.38363 8.67937 9.23964 8.11452 9.58951ZM9.36456 7.81539L8.9021 8.25504L8.82446 8.2861C8.74488 8.28901 8.35764 8.28998 8.11355 8.07307C7.81026 8.28561 7.39342 8.30066 7.39342 8.30066L7.32888 8.27494L6.81693 7.81539L6.68251 7.87071C6.68833 7.81588 6.71842 7.69262 6.88535 7.71688C7.15904 7.75619 7.27211 7.90662 7.56035 7.93671L7.64188 7.94496L7.61325 7.98184C7.65789 7.98184 7.72389 7.96873 7.77241 7.95806L7.82725 7.9634L7.8025 8.04977C7.84132 8.03813 7.89761 8.00464 7.94371 7.97504L8.06988 7.98717L8.09851 8.02697L8.19459 7.97892L8.25913 7.97262C8.31494 8.00513 8.39452 8.03425 8.39452 8.03425L8.40956 7.95854C8.47798 8.00416 8.59154 8.00416 8.59154 8.00416C8.57843 7.99348 8.56533 7.96631 8.55174 7.94302L8.62162 7.93574C8.90987 7.90565 9.02245 7.75522 9.29662 7.71591C9.46355 7.69213 9.49364 7.81491 9.49946 7.86974L9.36456 7.81539Z" fill="#FFCD43"/>
<path d="M7.932 9.57426L7.65879 10.6127L7.2041 10.522L7.67432 9.1875L7.932 9.57426ZM8.2712 9.57426L8.54391 10.6127L8.99909 10.522L8.52887 9.1875L8.2712 9.57426Z" fill="#EEEEEE"/>
<path d="M7.63623 8.48254C7.63623 8.48254 7.67408 8.92219 7.8711 9.26333V8.38403C7.8711 8.38403 7.74202 8.45973 7.63623 8.48254ZM8.58395 8.49759C8.58395 8.49759 8.5461 8.93723 8.34908 9.27837V8.39908C8.3486 8.39908 8.47768 8.47478 8.58395 8.49759Z" fill="#FFCD43"/>
<path d="M7.72705 6.99638C7.72705 6.99638 7.77994 6.94348 7.93183 7.04927C8.03034 7.11818 8.11769 7.17059 8.11769 7.17059C8.11769 7.17059 8.1798 7.10508 8.27103 7.12012C8.36226 7.13516 8.31131 7.26182 8.32635 7.52677C8.34139 7.79221 8.44767 7.90576 8.44767 7.90576L8.31859 7.83006L8.32635 7.91353L8.18223 7.8451L8.11381 7.94361L8.04538 7.83734L7.93474 7.90479L7.90126 7.81453L7.77218 7.88295C7.77218 7.88295 7.96192 7.64809 7.97696 7.38993C7.98133 7.31277 7.96192 7.13953 7.96192 7.13953C7.96192 7.13953 7.84109 6.98861 7.72705 6.99638Z" fill="#EEEEEE"/>
<path d="M7.04437 10.9162C6.95751 10.9682 6.99148 10.9997 7.04437 11.0225C7.09727 11.0453 7.4156 11.0837 8.06051 11.0982C8.71999 11.1133 9.12955 11.0376 9.18244 11.007C9.23534 10.9769 9.2431 10.9235 9.15236 10.9085C9.06113 10.8934 8.60644 10.9691 8.05275 10.9691C7.37047 10.9696 7.08222 10.8934 7.04437 10.9162Z" fill="#FFCD43"/>
</g>
<defs>
<clipPath id="clip0_60_5164">
<rect x="0.181641" y="0.987549" width="15.4461" height="15.4461" rx="7.72305" fill="white"/>
</clipPath>
</defs>
</svg>
