<svg width="15" height="16" viewBox="0 0 15 16" fill="none" xmlns="http://www.w3.org/2000/svg">
<g clip-path="url(#clip0_2070_2245)">
<path d="M11.2125 11.7125C10.1441 12.5269 8.84319 12.978 7.5 13C3.125 13 0.625 8 0.625 8C1.40243 6.55118 2.48071 5.28538 3.7875 4.2875M6.1875 3.15C6.61771 3.0493 7.05817 2.99896 7.5 3C11.875 3 14.375 8 14.375 8C13.9956 8.70975 13.5432 9.37796 13.025 9.99375M8.825 9.325C8.65334 9.50922 8.44634 9.65697 8.21635 9.75945C7.98635 9.86193 7.73806 9.91704 7.48631 9.92148C7.23455 9.92592 6.98448 9.87961 6.75101 9.78531C6.51754 9.691 6.30545 9.55064 6.1274 9.3726C5.94936 9.19455 5.809 8.98246 5.71469 8.74899C5.62039 8.51552 5.57408 8.26545 5.57852 8.01369C5.58296 7.76194 5.63807 7.51365 5.74055 7.28365C5.84303 7.05366 5.99078 6.84666 6.175 6.675M0.625 1.125L14.375 14.875" stroke="white" stroke-width="1.25" stroke-linecap="round" stroke-linejoin="round"/>
</g>
<defs>
<clipPath id="clip0_2070_2245">
<rect width="15" height="15" fill="white" transform="translate(0 0.5)"/>
</clipPath>
</defs>
</svg>
