<svg width="34" height="34" viewBox="0 0 34 34" fill="none" xmlns="http://www.w3.org/2000/svg">
<path d="M17 0C26.3888 0 34 7.61117 34 17C34 25.6916 27.477 32.8588 19.0596 33.8755V22.1949L23.6584 22.1949L24.6124 17H19.0596V15.1627C19.0596 13.7901 19.3288 12.8398 19.9465 12.2327C20.5642 11.6255 21.5303 11.3616 22.9241 11.3616C23.2768 11.3616 23.6015 11.3651 23.8896 11.3721C24.3087 11.3823 24.6503 11.3999 24.8881 11.4249V6.71568C24.793 6.68927 24.6808 6.66288 24.5552 6.63689C24.2704 6.57801 23.9165 6.52126 23.536 6.47142C22.7408 6.36725 21.8298 6.29326 21.1925 6.29326C18.6184 6.29326 16.673 6.84395 15.3152 7.9846C13.6763 9.3612 12.8932 11.5971 12.8932 14.7615V17H9.38767V22.1949H12.8932V33.4994C5.48862 31.6623 0 24.9726 0 17C0 7.61117 7.61117 0 17 0Z" fill="#2D3748"/>
</svg>
