<svg width="14" height="14" viewBox="0 0 14 14" fill="none" xmlns="http://www.w3.org/2000/svg">
<g clip-path="url(#clip0_2412_9493)">
<path d="M16.9796 11.8236C16.9796 12.3728 16.7614 12.8996 16.373 13.288C15.9846 13.6764 15.4578 13.8946 14.9085 13.8946H0.410925C-0.13836 13.8946 -0.665148 13.6764 -1.05355 13.288C-1.44195 12.8996 -1.66016 12.3728 -1.66016 11.8236V2.5037C-1.66016 1.95441 -1.44195 1.42763 -1.05355 1.03922C-0.665148 0.65082 -0.13836 0.432617 0.410925 0.432617H14.9085C15.4578 0.432617 15.9846 0.65082 16.373 1.03922C16.7614 1.42763 16.9796 1.95441 16.9796 2.5037V11.8236Z" fill="#141414"/>
<path d="M-1.66016 4.5752H16.9796V9.7529H-1.66016V4.5752Z" fill="#F4F4F4"/>
<path d="M14.9085 0.432617H0.410925C-0.13836 0.432617 -0.665148 0.65082 -1.05355 1.03922C-1.44195 1.42763 -1.66016 1.95441 -1.66016 2.5037L-1.66016 4.57478H16.9796V2.5037C16.9796 1.95441 16.7614 1.42763 16.373 1.03922C15.9846 0.65082 15.4578 0.432617 14.9085 0.432617Z" fill="#E10115"/>
<path d="M6.28906 8.78023C6.28906 8.78023 6.29562 8.88271 6.38498 8.93395C6.38498 8.93395 6.35957 9.01101 6.45549 9.05569C6.55141 9.10038 6.89738 9.17088 7.49955 9.17088C8.10172 9.17088 8.44113 9.10693 8.5309 9.06184C8.62067 9.01716 8.62682 8.91468 8.62682 8.91468C8.62682 8.91468 8.72274 8.86344 8.71659 8.7995C8.71003 8.73555 8.58214 8.66504 8.58214 8.66504C8.58214 8.66504 8.55017 8.58183 8.46039 8.54986C8.37062 8.51788 8.08245 8.69087 7.53152 8.66504C6.98059 8.63963 6.66701 8.55601 6.56453 8.56256C6.46205 8.56912 6.41737 8.6716 6.41737 8.6716C6.41737 8.6716 6.30177 8.72284 6.28906 8.78023Z" fill="#FFCD43"/>
<path d="M6.36353 8.77422C6.3582 8.81234 6.44059 8.89596 6.44059 8.89596C6.44059 8.89596 6.44059 8.99188 6.52381 9.01771C6.60702 9.04353 6.94643 9.10748 7.49736 9.10092C8.04829 9.09436 8.43894 9.06239 8.48362 9.02385C8.5283 8.98532 8.56683 8.90211 8.56683 8.90211C8.56683 8.90211 8.65661 8.83816 8.65005 8.78692C8.64349 8.73568 8.51559 8.70371 8.51559 8.70371C8.51559 8.70371 8.47952 8.62664 8.43689 8.59467C8.39426 8.5627 8.11879 8.72256 7.52933 8.72256C6.95258 8.72256 6.61973 8.58155 6.56234 8.58811C6.50454 8.59467 6.46642 8.7033 6.46642 8.7033C6.46642 8.7033 6.37009 8.72953 6.36353 8.77422Z" fill="#EEEEEE"/>
<path d="M8.7945 6.28974C8.7945 6.28974 8.78179 5.98886 8.50633 6.02698C8.23087 6.06552 8.2116 6.19997 7.91687 6.23194L7.8562 6.23768C7.80703 6.10441 7.7799 5.96402 7.77586 5.82203C7.77586 5.62977 7.83366 5.54656 7.63485 5.45064C7.43645 5.35472 7.39791 5.44408 7.39791 5.44408C7.39791 5.44408 7.24419 5.36702 7.17369 5.42482C7.10318 5.48261 7.14172 5.62977 7.17369 5.58509C7.20566 5.54041 7.33397 5.66831 7.33397 5.66831C7.37742 5.88105 7.25403 6.11143 7.16959 6.23973C7.14049 6.23686 7.11712 6.23563 7.08433 6.23194C6.7896 6.19997 6.77033 6.06552 6.49487 6.02698C6.2194 5.98845 6.20669 6.28974 6.20669 6.28974L6.09766 8.61479L6.32188 8.44181L6.32311 8.41434L6.7896 7.99992L6.86748 7.92203L6.67441 8.48649C6.67441 8.48649 6.37968 8.46722 6.46289 8.70415C6.46289 8.70415 6.50757 8.5697 6.58464 8.59512C6.6617 8.62053 6.88552 8.67833 6.88552 8.67833L6.96258 8.80007L7.0585 8.7103L7.35938 8.69759C7.35938 8.69759 7.4553 8.72301 7.44915 8.80663C7.46678 8.77067 7.47211 8.72991 7.46432 8.69063L7.55491 8.68448C7.54518 8.72571 7.55011 8.76905 7.56885 8.80704C7.56229 8.72383 7.65862 8.698 7.65862 8.698L7.9595 8.71071L8.05583 8.80048L8.1329 8.67874C8.1329 8.67874 8.35671 8.62094 8.43336 8.59553C8.51002 8.57011 8.55511 8.70456 8.55511 8.70456C8.63832 8.46763 8.34359 8.4869 8.34359 8.4869L8.15954 7.94868L8.21119 8.00033L8.67767 8.41475L8.67891 8.44222L8.90313 8.6152L8.7945 6.28974ZM7.52089 7.69904C7.05891 7.41373 7.02079 6.69351 7.02079 6.69351C7.02079 6.69351 7.3065 6.67875 7.51392 6.53323C7.70084 6.69925 8.01976 6.68039 8.01976 6.68039C8.01976 6.68039 7.99803 7.40349 7.52089 7.69904ZM8.57684 6.20038L8.18618 6.57176L8.1206 6.598C8.05337 6.60046 7.72626 6.60128 7.52007 6.41805C7.26387 6.59759 6.91175 6.6103 6.91175 6.6103L6.85723 6.58857L6.42477 6.20038L6.31122 6.24711C6.31614 6.20079 6.34156 6.09667 6.48257 6.11717C6.71376 6.15037 6.80927 6.27744 7.05276 6.30286L7.12163 6.30983L7.09744 6.34098C7.13516 6.34098 7.19091 6.32991 7.2319 6.32089L7.27822 6.3254L7.25731 6.39837C7.29011 6.38853 7.33766 6.36025 7.3766 6.33524L7.48318 6.34549L7.50736 6.3791L7.58853 6.33852L7.64304 6.33319C7.69018 6.36066 7.75741 6.38525 7.75741 6.38525L7.77012 6.3213C7.82792 6.35984 7.92384 6.35984 7.92384 6.35984C7.91277 6.35082 7.9017 6.32786 7.89022 6.30819L7.94925 6.30204C8.19274 6.27662 8.28784 6.14955 8.51945 6.11635C8.66046 6.09626 8.68587 6.19997 8.69079 6.24629L8.57684 6.20038Z" fill="#FFCD43"/>
<path d="M7.36488 7.68608L7.13409 8.5633L6.75 8.48665L7.14721 7.35938L7.36488 7.68608ZM7.65141 7.68608L7.88178 8.5633L8.26628 8.48665L7.86907 7.35938L7.65141 7.68608Z" fill="#EEEEEE"/>
<path d="M7.11719 6.76485C7.11719 6.76485 7.14916 7.13624 7.31559 7.42441V6.68164C7.31559 6.68164 7.20655 6.74559 7.11719 6.76485ZM7.91776 6.77756C7.91776 6.77756 7.88578 7.14895 7.71936 7.43712V6.69435C7.71895 6.69435 7.82798 6.7583 7.91776 6.77756Z" fill="#FFCD43"/>
<path d="M7.19141 5.50824C7.19141 5.50824 7.23609 5.46356 7.36439 5.55292C7.4476 5.61113 7.52139 5.6554 7.52139 5.6554C7.52139 5.6554 7.57386 5.60006 7.65092 5.61277C7.72799 5.62548 7.68495 5.73247 7.69765 5.95628C7.71036 6.1805 7.80013 6.27643 7.80013 6.27643L7.6911 6.21248L7.69765 6.28298L7.57591 6.22519L7.51811 6.3084L7.46031 6.21863L7.36685 6.27561L7.33857 6.19936L7.22953 6.25716C7.22953 6.25716 7.38981 6.05876 7.40251 5.84068C7.4062 5.77551 7.38981 5.62917 7.38981 5.62917C7.38981 5.62917 7.28774 5.50168 7.19141 5.50824Z" fill="#EEEEEE"/>
<path d="M6.61522 8.81975C6.54184 8.86361 6.57054 8.89026 6.61522 8.90953C6.6599 8.92879 6.92881 8.96117 7.47359 8.97347C8.03066 8.98618 8.37663 8.92223 8.42131 8.89641C8.466 8.87099 8.47255 8.8259 8.3959 8.81319C8.31884 8.80049 7.93474 8.86443 7.46703 8.86443C6.89068 8.86484 6.64719 8.80049 6.61522 8.81975Z" fill="#FFCD43"/>
</g>
<defs>
<clipPath id="clip0_2412_9493">
<rect x="0.824219" y="0.432617" width="13.0478" height="13.0478" rx="6.52391" fill="white"/>
</clipPath>
</defs>
</svg>
