<svg width="34" height="34" viewBox="0 0 34 34" fill="none" xmlns="http://www.w3.org/2000/svg">
<path d="M26.0599 9.94801C24.934 9.95021 24.0186 9.03862 24.0164 7.91277C24.0142 6.78691 24.9258 5.87147 26.0522 5.86927C27.1785 5.86707 28.094 6.7792 28.0962 7.90505C28.0978 9.03091 27.1862 9.9458 26.0599 9.94801Z" fill="#2D3748"/>
<path fill-rule="evenodd" clip-rule="evenodd" d="M17.0163 25.7281C12.1962 25.7375 8.28056 21.8377 8.27121 17.0165C8.26183 12.1964 12.1626 8.28015 16.9827 8.27079C21.8038 8.26142 25.72 12.1634 25.7294 16.9829C25.7387 21.8041 21.8369 25.7187 17.0163 25.7281ZM16.9887 11.3338C13.8602 11.3393 11.3276 13.8813 11.3331 17.0105C11.3391 20.1402 13.8817 22.6722 17.0102 22.6662C20.1399 22.6601 22.6725 20.1187 22.6664 16.989C22.6603 13.8593 20.1178 11.3278 16.9887 11.3338Z" fill="#2D3748"/>
<path fill-rule="evenodd" clip-rule="evenodd" d="M5.83554 0.915845C6.91512 0.492824 8.15056 0.203096 9.95938 0.117722C11.7727 0.0307029 12.3515 0.0108673 16.9672 0.00205788C21.5841 -0.00675152 22.1629 0.0108639 23.9762 0.0912807C25.7856 0.169494 27.0216 0.454819 28.1033 0.873437C29.2226 1.30471 30.1721 1.88527 31.1184 2.82771C32.0647 3.77123 32.6474 4.71753 33.0842 5.83511C33.5067 6.9158 33.7964 8.15016 33.8823 9.96012C33.9683 11.7728 33.9892 12.3512 33.998 16.9675C34.0068 21.5833 33.9881 22.1627 33.9088 23.9771C33.83 25.7854 33.5453 27.0219 33.1266 28.1032C32.6942 29.2224 32.1148 30.172 31.1724 31.1183C30.23 32.0652 29.2826 32.6474 28.165 33.0847C27.0843 33.5066 25.85 33.7963 24.0412 33.8828C22.2279 33.9687 21.649 33.9891 17.0317 33.9979C12.4165 34.0067 11.8376 33.9891 10.0244 33.9092C8.215 33.8299 6.97846 33.5452 5.89723 33.1271C4.77801 32.6942 3.82843 32.1153 2.88214 31.1723C1.93532 30.2293 1.35205 29.2825 0.915816 28.1649C0.492798 27.0847 0.204152 25.8498 0.117686 24.0415C0.0312175 22.2277 0.0108447 21.6483 0.00203867 17.0325C-0.00680133 12.4162 0.0113853 11.8378 0.0906903 10.0246C0.170566 8.21461 0.454235 6.97859 0.87285 5.89625C1.30521 4.77755 1.88466 3.82852 2.82819 2.88168C3.77061 1.9354 4.71797 1.35152 5.83554 0.915845ZM7.00051 30.2712C7.60033 30.5019 8.50032 30.7774 10.1577 30.8495C11.9511 30.9272 12.4881 30.9443 17.0262 30.9354C21.5659 30.9272 22.1029 30.9079 23.8958 30.8236C25.5515 30.7449 26.4515 30.4661 27.0496 30.2326C27.8434 29.9225 28.4085 29.5518 29.0022 28.9575C29.596 28.361 29.9634 27.7942 30.2707 27.0005C30.5021 26.4001 30.7769 25.4995 30.8491 23.8421C30.9278 22.0498 30.9443 21.5122 30.9355 16.973C30.9273 12.4349 30.908 11.8973 30.8226 10.1044C30.7444 8.44814 30.4663 7.54812 30.2322 6.95049C29.9221 6.15568 29.5525 5.59166 28.9565 4.99733C28.3605 4.40301 27.7938 4.03672 26.999 3.72937C26.4002 3.49749 25.4991 3.22317 23.8429 3.15103C22.0495 3.07226 21.5119 3.05627 16.9727 3.0651C12.4347 3.07391 11.8977 3.09208 10.1048 3.17692C8.44801 3.25567 7.54909 3.53383 6.94981 3.76793C6.15665 4.07803 5.59153 4.44652 4.99723 5.04305C4.404 5.63957 4.03662 6.20525 3.72929 7.00062C3.49907 7.5999 3.22199 8.50102 3.15095 10.1573C3.07272 11.9507 3.05621 12.4883 3.06502 17.0264C3.0733 21.5656 3.09256 22.1032 3.17684 23.895C3.2545 25.5524 3.53484 26.4513 3.76785 27.0511C4.07794 27.8438 4.44754 28.4089 5.04295 29.0032C5.63948 29.5953 6.20625 29.9638 7.00051 30.2712Z" fill="#2D3748"/>
</svg>
