<svg width="41" height="41" viewBox="0 0 41 41" fill="none" xmlns="http://www.w3.org/2000/svg">
<path d="M20.5013 38.9156C19.3226 38.9156 18.2122 38.3177 17.4263 37.2756L14.8638 33.859C14.8126 33.7906 14.6075 33.6882 14.505 33.6882H13.668C6.54422 33.6882 2.13672 31.7577 2.13672 22.1569V13.6152C2.13672 6.0644 6.11714 2.08398 13.668 2.08398H27.3346C34.8855 2.08398 38.8659 6.0644 38.8659 13.6152V22.1569C38.8659 22.8573 38.2851 23.4382 37.5846 23.4382C36.8842 23.4382 36.3034 22.8573 36.3034 22.1569V13.6152C36.3034 7.4994 33.4505 4.64648 27.3346 4.64648H13.668C7.55214 4.64648 4.69922 7.4994 4.69922 13.6152V22.1569C4.69922 29.8786 7.34714 31.1257 13.668 31.1257H14.5221C15.3934 31.1257 16.4013 31.6211 16.9138 32.3215L19.4763 35.7381C20.0742 36.524 20.9284 36.524 21.5263 35.7381C21.9534 35.1744 22.7563 35.0548 23.32 35.4819C23.8838 35.909 24.0034 36.7119 23.5763 37.2756C22.7904 38.3177 21.6801 38.9156 20.5013 38.9156Z" fill="white"/>
<path d="M20.5013 20.4479C19.5446 20.4479 18.793 19.6792 18.793 18.7396C18.793 17.8 19.5617 17.0312 20.5013 17.0312C21.4409 17.0312 22.2096 17.8 22.2096 18.7396C22.2096 19.6792 21.458 20.4479 20.5013 20.4479Z" fill="white"/>
<path d="M27.3333 20.4479C26.3767 20.4479 25.625 19.6792 25.625 18.7396C25.625 17.8 26.3938 17.0312 27.3333 17.0312C28.2729 17.0312 29.0417 17.8 29.0417 18.7396C29.0417 19.6792 28.29 20.4479 27.3333 20.4479Z" fill="white"/>
<path d="M13.6654 20.4479C12.7087 20.4479 11.957 19.6792 11.957 18.7396C11.957 17.8 12.7258 17.0312 13.6654 17.0312C14.6049 17.0312 15.3737 17.8 15.3737 18.7396C15.3737 19.6792 14.622 20.4479 13.6654 20.4479Z" fill="white"/>
<path d="M31.0917 37.8396C27.3675 37.8396 24.3438 34.8158 24.3438 31.0917C24.3438 27.3675 27.3675 24.3438 31.0917 24.3438C34.8159 24.3438 37.8396 27.3675 37.8396 31.0917C37.8396 34.8158 34.8159 37.8396 31.0917 37.8396ZM31.0917 26.9062C28.7854 26.9062 26.9062 28.7854 26.9062 31.0917C26.9062 33.3979 28.7854 35.2771 31.0917 35.2771C33.3979 35.2771 35.2771 33.3979 35.2771 31.0917C35.2771 28.7854 33.3979 26.9062 31.0917 26.9062Z" fill="white"/>
<path d="M37.583 38.8652C37.2584 38.8652 36.9338 38.7456 36.6776 38.4894L34.9692 36.781C34.4738 36.2856 34.4738 35.4656 34.9692 34.9702C35.4646 34.4748 36.2846 34.4748 36.78 34.9702L38.4884 36.6785C38.9838 37.1739 38.9838 37.9939 38.4884 38.4894C38.2321 38.7456 37.9076 38.8652 37.583 38.8652Z" fill="white"/>
</svg>
