<svg width="36" height="36" viewBox="0 0 36 36" fill="none" xmlns="http://www.w3.org/2000/svg">
<rect width="36" height="36" rx="18" fill="#DEDDDD" fill-opacity="0.31"/>
<path d="M14.4487 26.6687C14.2587 26.6687 14.0687 26.5987 13.9187 26.4487C13.6287 26.1587 13.6287 25.6787 13.9187 25.3887L20.4387 18.8687C20.9187 18.3887 20.9187 17.6087 20.4387 17.1287L13.9187 10.6087C13.6287 10.3187 13.6287 9.83874 13.9187 9.54874C14.2087 9.25874 14.6887 9.25874 14.9787 9.54874L21.4987 16.0687C22.0087 16.5787 22.2987 17.2687 22.2987 17.9987C22.2987 18.7287 22.0187 19.4187 21.4987 19.9287L14.9787 26.4487C14.8287 26.5887 14.6387 26.6687 14.4487 26.6687Z" fill="#292D32"/>
</svg>
