<svg width="23" height="23" viewBox="0 0 23 23" fill="none" xmlns="http://www.w3.org/2000/svg">
<circle cx="11.2305" cy="11.5" r="11" fill="white"/>
<path d="M11.2317 13.3696V13.0809C11.2317 12.1459 11.8092 11.6509 12.3867 11.2522C12.9505 10.8672 13.5141 10.3722 13.5141 9.46468C13.5141 8.19968 12.4967 7.18213 11.2317 7.18213C9.96668 7.18213 8.94922 8.19968 8.94922 9.46468" fill="white"/>
<path d="M11.2317 13.3696V13.0809C11.2317 12.1459 11.8092 11.6509 12.3867 11.2522C12.9505 10.8672 13.5141 10.3722 13.5141 9.46468C13.5141 8.19968 12.4967 7.18213 11.2317 7.18213C9.96668 7.18213 8.94922 8.19968 8.94922 9.46468" stroke="black" stroke-width="2.0625" stroke-linecap="round" stroke-linejoin="round"/>
<path fill-rule="evenodd" clip-rule="evenodd" d="M11.2243 16.6562H11.2367H11.2243Z" fill="white"/>
<path d="M11.2243 16.6562H11.2367" stroke="black" stroke-width="2.0625" stroke-linecap="round" stroke-linejoin="round"/>
</svg>
