<svg width="36" height="36" viewBox="0 0 36 36" fill="none" xmlns="http://www.w3.org/2000/svg">
<rect x="36" y="36" width="36" height="36" rx="18" transform="rotate(180 36 36)" fill="#00AFA9"/>
<path d="M21.5513 9.3312C21.7413 9.3312 21.9313 9.4012 22.0813 9.5512C22.3713 9.8412 22.3713 10.3212 22.0813 10.6112L15.5613 17.1312C15.0813 17.6112 15.0813 18.3912 15.5613 18.8712L22.0813 25.3912C22.3713 25.6812 22.3713 26.1612 22.0813 26.4512C21.7913 26.7412 21.3113 26.7412 21.0213 26.4512L14.5013 19.9312C13.9913 19.4212 13.7013 18.7312 13.7013 18.0012C13.7013 17.2712 13.9813 16.5812 14.5013 16.0712L21.0213 9.5512C21.1713 9.4112 21.3613 9.3312 21.5513 9.3312Z" fill="#F5FAFC"/>
</svg>
