<svg width="32" height="26" viewBox="0 0 32 26" fill="none" xmlns="http://www.w3.org/2000/svg">
<path d="M29.0364 11.9854L28.5322 10.3369H26.011L25.5067 11.9854H23.9261L26.3698 5.03262H28.1637L30.617 11.9854H29.0364ZM27.6789 7.49565C27.6465 7.38576 27.6045 7.24677 27.5528 7.07868C27.5011 6.9106 27.4494 6.73929 27.3977 6.56475C27.3459 6.3902 27.3039 6.23828 27.2716 6.10899C27.2393 6.23828 27.194 6.3999 27.1358 6.59384C27.0841 6.78131 27.0324 6.96232 26.9807 7.13687C26.9354 7.30495 26.8999 7.42454 26.874 7.49565L26.3795 9.10535H28.1831L27.6789 7.49565Z" fill="#666666"/>
<path d="M29.8485 22.8945H24.6994V21.9442L28.0158 17.183H24.7867V15.9709H29.7612V16.9212L26.4449 21.6824H29.8485V22.8945Z" fill="#666666"/>
<path d="M11.5141 21.5153C11.3414 21.5153 11.1687 21.4517 11.0323 21.3153L5.51413 15.7971C5.2505 15.5335 5.2505 15.0971 5.51413 14.8335C5.77777 14.5698 6.21413 14.5698 6.47777 14.8335L11.5141 19.8698L16.5505 14.8335C16.8141 14.5698 17.2505 14.5698 17.5141 14.8335C17.7778 15.0971 17.7778 15.5335 17.5141 15.7971L11.996 21.3153C11.8596 21.4517 11.6869 21.5153 11.5141 21.5153Z" fill="#666666"/>
<path d="M11.5138 21.3609C11.1411 21.3609 10.832 21.0518 10.832 20.6791V5.37908C10.832 5.00636 11.1411 4.69727 11.5138 4.69727C11.8866 4.69727 12.1957 5.00636 12.1957 5.37908V20.6791C12.1957 21.0518 11.8866 21.3609 11.5138 21.3609Z" fill="#666666"/>
</svg>
