<svg width="48" height="48" viewBox="0 0 48 48" fill="none" xmlns="http://www.w3.org/2000/svg">
<path d="M32.38 4H15.62C8.34 4 4 8.34 4 15.62V32.36C4 39.66 8.34 44 15.62 44H32.36C39.64 44 43.98 39.66 43.98 32.38V15.62C44 8.34 39.66 4 32.38 4ZM33.56 19.4L22.22 30.74C21.94 31.02 21.56 31.18 21.16 31.18C20.76 31.18 20.38 31.02 20.1 30.74L14.44 25.08C13.86 24.5 13.86 23.54 14.44 22.96C15.02 22.38 15.98 22.38 16.56 22.96L21.16 27.56L31.44 17.28C32.02 16.7 32.98 16.7 33.56 17.28C34.14 17.86 34.14 18.8 33.56 19.4Z" fill="#292D32"/>
</svg>
