<svg width="48" height="48" viewBox="0 0 48 48" fill="none" xmlns="http://www.w3.org/2000/svg">
<path d="M34.779 31.34L26.699 24H21.279L13.199 31.34C10.939 33.38 10.199 36.52 11.299 39.36C12.399 42.18 15.079 44 18.099 44H29.879C32.919 44 35.579 42.18 36.679 39.36C37.779 36.52 37.039 33.38 34.779 31.34ZM27.639 36.28H20.359C19.599 36.28 18.999 35.66 18.999 34.92C18.999 34.18 19.619 33.56 20.359 33.56H27.639C28.399 33.56 28.999 34.18 28.999 34.92C28.999 35.66 28.379 36.28 27.639 36.28Z" fill="#292D32"/>
<path d="M36.7013 8.64C35.6013 5.82 32.9213 4 29.9013 4H18.1013C15.0813 4 12.4013 5.82 11.3013 8.64C10.2213 11.48 10.9613 14.62 13.2213 16.66L21.3013 24H26.7213L34.8013 16.66C37.0413 14.62 37.7813 11.48 36.7013 8.64ZM27.6413 14.46H20.3613C19.6013 14.46 19.0013 13.84 19.0013 13.1C19.0013 12.36 19.6213 11.74 20.3613 11.74H27.6413C28.4013 11.74 29.0013 12.36 29.0013 13.1C29.0013 13.84 28.3813 14.46 27.6413 14.46Z" fill="#292D32"/>
</svg>
