<svg width="14" height="13" viewBox="0 0 14 13" fill="none" xmlns="http://www.w3.org/2000/svg">
<g clip-path="url(#clip0_662_2483)">
<path d="M13.0684 6.25335C12.9552 6.09846 10.2574 2.46094 6.81196 2.46094C3.36647 2.46094 0.668622 6.09846 0.555522 6.2532C0.448289 6.40014 0.448289 6.59943 0.555522 6.74637C0.668622 6.90125 3.36647 10.5388 6.81196 10.5388C10.2574 10.5388 12.9552 6.90123 13.0684 6.74649C13.1758 6.59958 13.1758 6.40014 13.0684 6.25335ZM6.81196 9.70314C4.27399 9.70314 2.07584 7.28884 1.42514 6.49957C2.075 5.70961 4.26855 3.29657 6.81196 3.29657C9.34981 3.29657 11.5478 5.71045 12.1988 6.50014C11.5489 7.29008 9.35538 9.70314 6.81196 9.70314Z" fill="white"/>
<path d="M6.81015 3.99219C5.42786 3.99219 4.30322 5.11682 4.30322 6.49912C4.30322 7.88141 5.42786 9.00604 6.81015 9.00604C8.19244 9.00604 9.31708 7.88141 9.31708 6.49912C9.31708 5.11682 8.19244 3.99219 6.81015 3.99219ZM6.81015 8.17038C5.88857 8.17038 5.13888 7.42067 5.13888 6.49912C5.13888 5.57756 5.8886 4.82785 6.81015 4.82785C7.7317 4.82785 8.48142 5.57756 8.48142 6.49912C8.48142 7.42067 7.73173 8.17038 6.81015 8.17038Z" fill="white"/>
</g>
<defs>
<clipPath id="clip0_662_2483">
<rect width="12.6739" height="12.6739" fill="white" transform="translate(0.473145 0.163086)"/>
</clipPath>
</defs>
</svg>
